<svg width="1440" height="465" viewBox="0 0 1440 465" fill="none" xmlns="http://www.w3.org/2000/svg">
<path d="M0 422.51C202.703 422.51 347.472 387.633 480.333 389.758C789.74 394.705 643.639 247.682 960.667 247.682C1305.86 247.682 1223.24 118 1441 118" stroke="#5F82FF" stroke-width="3"/>
<path d="M480.333 389.758C347.472 387.633 202.703 422.51 0 422.51V465H1441V118C1223.24 118 1305.86 247.682 960.667 247.682C643.639 247.682 789.74 394.705 480.333 389.758Z" fill="url(#paint0_linear_6_26)" fill-opacity="0.4"/>
<line x1="924.5" y1="200" x2="924.5" y2="389" stroke="#D8E0F7"/>
<g filter="url(#filter0_d_6_26)">
<circle cx="924.5" cy="248.5" r="7.5" fill="white"/>
<circle cx="924.5" cy="248.5" r="6.5" stroke="#5E80FE" stroke-width="2"/>
</g>
<line x1="1332.5" x2="1332.5" y2="317" stroke="#D8E0F7"/>
<g filter="url(#filter1_d_6_26)">
<circle cx="1332.5" cy="134.5" r="7.5" fill="white"/>
<circle cx="1332.5" cy="134.5" r="6.5" stroke="#5E80FE" stroke-width="2"/>
</g>
<line x1="515.5" y1="378" x2="515.5" y2="437" stroke="#D8E0F7"/>
<line x1="107.5" y1="262" x2="107.5" y2="452" stroke="#D8E0F7"/>
<g filter="url(#filter2_d_6_26)">
<circle cx="107.5" cy="419.5" r="7.5" fill="white"/>
<circle cx="107.5" cy="419.5" r="6.5" stroke="#5E80FE" stroke-width="2"/>
</g>
<g filter="url(#filter3_d_6_26)">
<circle cx="515.5" cy="391.5" r="7.5" fill="white"/>
<circle cx="515.5" cy="391.5" r="6.5" stroke="#5E80FE" stroke-width="2"/>
</g>
<g filter="url(#filter4_d_6_26)">
<mask id="path-15-inside-1_6_26" fill="white">
<path fill-rule="evenodd" clip-rule="evenodd" d="M562 305C562 303.343 560.657 302 559 302H473C471.343 302 470 303.343 470 305V362.26C470 363.917 471.343 365.26 473 365.26H509.669C510.665 365.26 511.596 365.754 512.154 366.579L513.515 368.591C514.705 370.35 517.295 370.35 518.485 368.591L519.846 366.579C520.404 365.754 521.335 365.26 522.331 365.26H559C560.657 365.26 562 363.917 562 362.26V305Z"/>
</mask>
<path fill-rule="evenodd" clip-rule="evenodd" d="M562 305C562 303.343 560.657 302 559 302H473C471.343 302 470 303.343 470 305V362.26C470 363.917 471.343 365.26 473 365.26H509.669C510.665 365.26 511.596 365.754 512.154 366.579L513.515 368.591C514.705 370.35 517.295 370.35 518.485 368.591L519.846 366.579C520.404 365.754 521.335 365.26 522.331 365.26H559C560.657 365.26 562 363.917 562 362.26V305Z" fill="white"/>
<path d="M519.846 366.579L519.017 366.019L519.846 366.579ZM513.515 368.591L514.343 368.031L513.515 368.591ZM518.485 368.591L519.313 369.151L518.485 368.591ZM473 303H559V301H473V303ZM471 362.26V305H469V362.26H471ZM509.669 364.26H473V366.26H509.669V364.26ZM514.343 368.031L512.983 366.019L511.326 367.14L512.687 369.151L514.343 368.031ZM519.017 366.019L517.657 368.031L519.313 369.151L520.674 367.14L519.017 366.019ZM559 364.26H522.331V366.26H559V364.26ZM561 305V362.26H563V305H561ZM559 366.26C561.209 366.26 563 364.469 563 362.26H561C561 363.365 560.105 364.26 559 364.26V366.26ZM520.674 367.14C521.046 366.59 521.667 366.26 522.331 366.26V364.26C521.003 364.26 519.761 364.919 519.017 366.019L520.674 367.14ZM512.687 369.151C514.273 371.497 517.727 371.497 519.313 369.151L517.657 368.031C516.863 369.204 515.136 369.204 514.343 368.031L512.687 369.151ZM509.669 366.26C510.333 366.26 510.954 366.59 511.326 367.14L512.983 366.019C512.239 364.919 510.997 364.26 509.669 364.26V366.26ZM469 362.26C469 364.469 470.791 366.26 473 366.26V364.26C471.895 364.26 471 363.365 471 362.26H469ZM559 303C560.105 303 561 303.895 561 305H563C563 302.791 561.209 301 559 301V303ZM473 301C470.791 301 469 302.791 469 305H471C471 303.895 471.895 303 473 303V301Z" fill="#D8E0F7" mask="url(#path-15-inside-1_6_26)"/>
<path d="M499 335.25C499 325.723 506.668 318 516.128 318C517.871 318 519.554 318.262 521.139 318.75" stroke="#5F82FF" stroke-width="4" stroke-linecap="round" stroke-linejoin="round"/>
<path fill-rule="evenodd" clip-rule="evenodd" d="M512.442 338.962C514.477 341.013 517.778 341.013 519.814 338.962C521.849 336.912 530.276 322.5 529.532 321.75C528.787 321 514.477 329.487 512.442 331.538C510.406 333.588 510.406 336.912 512.442 338.962ZM516.128 336.75C516.95 336.75 517.617 336.078 517.617 335.25C517.617 334.422 516.95 333.75 516.128 333.75C515.305 333.75 514.638 334.422 514.638 335.25C514.638 336.078 515.305 336.75 516.128 336.75Z" fill="#5F82FF"/>
<ellipse cx="501.234" cy="344.25" rx="1.48936" ry="1.5" fill="#5F82FF"/>
<ellipse cx="507.191" cy="350.25" rx="1.48936" ry="1.5" fill="#5F82FF"/>
<ellipse cx="516.128" cy="352.5" rx="1.48936" ry="1.5" fill="#5F82FF"/>
<ellipse cx="525.064" cy="350.25" rx="1.48936" ry="1.5" fill="#5F82FF"/>
<ellipse cx="530.277" cy="344.25" rx="1.48936" ry="1.5" fill="#5F82FF"/>
<ellipse cx="532.511" cy="335.25" rx="1.48936" ry="1.5" fill="#5F82FF"/>
</g>
<defs>
<filter id="filter0_d_6_26" x="902" y="226" width="45" height="45" filterUnits="userSpaceOnUse" color-interpolation-filters="sRGB">
<feFlood flood-opacity="0" result="BackgroundImageFix"/>
<feColorMatrix in="SourceAlpha" type="matrix" values="0 0 0 0 0 0 0 0 0 0 0 0 0 0 0 0 0 0 127 0" result="hardAlpha"/>
<feOffset/>
<feGaussianBlur stdDeviation="7.5"/>
<feColorMatrix type="matrix" values="0 0 0 0 0.323144 0 0 0 0 0.512664 0 0 0 0 1 0 0 0 0.25 0"/>
<feBlend mode="normal" in2="BackgroundImageFix" result="effect1_dropShadow_6_26"/>
<feBlend mode="normal" in="SourceGraphic" in2="effect1_dropShadow_6_26" result="shape"/>
</filter>
<filter id="filter1_d_6_26" x="1310" y="112" width="45" height="45" filterUnits="userSpaceOnUse" color-interpolation-filters="sRGB">
<feFlood flood-opacity="0" result="BackgroundImageFix"/>
<feColorMatrix in="SourceAlpha" type="matrix" values="0 0 0 0 0 0 0 0 0 0 0 0 0 0 0 0 0 0 127 0" result="hardAlpha"/>
<feOffset/>
<feGaussianBlur stdDeviation="7.5"/>
<feColorMatrix type="matrix" values="0 0 0 0 0.323144 0 0 0 0 0.512664 0 0 0 0 1 0 0 0 0.25 0"/>
<feBlend mode="normal" in2="BackgroundImageFix" result="effect1_dropShadow_6_26"/>
<feBlend mode="normal" in="SourceGraphic" in2="effect1_dropShadow_6_26" result="shape"/>
</filter>
<filter id="filter2_d_6_26" x="85" y="397" width="45" height="45" filterUnits="userSpaceOnUse" color-interpolation-filters="sRGB">
<feFlood flood-opacity="0" result="BackgroundImageFix"/>
<feColorMatrix in="SourceAlpha" type="matrix" values="0 0 0 0 0 0 0 0 0 0 0 0 0 0 0 0 0 0 127 0" result="hardAlpha"/>
<feOffset/>
<feGaussianBlur stdDeviation="7.5"/>
<feColorMatrix type="matrix" values="0 0 0 0 0.323144 0 0 0 0 0.512664 0 0 0 0 1 0 0 0 0.25 0"/>
<feBlend mode="normal" in2="BackgroundImageFix" result="effect1_dropShadow_6_26"/>
<feBlend mode="normal" in="SourceGraphic" in2="effect1_dropShadow_6_26" result="shape"/>
</filter>
<filter id="filter3_d_6_26" x="493" y="369" width="45" height="45" filterUnits="userSpaceOnUse" color-interpolation-filters="sRGB">
<feFlood flood-opacity="0" result="BackgroundImageFix"/>
<feColorMatrix in="SourceAlpha" type="matrix" values="0 0 0 0 0 0 0 0 0 0 0 0 0 0 0 0 0 0 127 0" result="hardAlpha"/>
<feOffset/>
<feGaussianBlur stdDeviation="7.5"/>
<feColorMatrix type="matrix" values="0 0 0 0 0.323144 0 0 0 0 0.512664 0 0 0 0 1 0 0 0 0.25 0"/>
<feBlend mode="normal" in2="BackgroundImageFix" result="effect1_dropShadow_6_26"/>
<feBlend mode="normal" in="SourceGraphic" in2="effect1_dropShadow_6_26" result="shape"/>
</filter>
<filter id="filter4_d_6_26" x="440" y="282" width="152" height="127.911" filterUnits="userSpaceOnUse" color-interpolation-filters="sRGB">
<feFlood flood-opacity="0" result="BackgroundImageFix"/>
<feColorMatrix in="SourceAlpha" type="matrix" values="0 0 0 0 0 0 0 0 0 0 0 0 0 0 0 0 0 0 127 0" result="hardAlpha"/>
<feOffset dy="10"/>
<feGaussianBlur stdDeviation="15"/>
<feColorMatrix type="matrix" values="0 0 0 0 0.894415 0 0 0 0 0.918495 0 0 0 0 0.984716 0 0 0 1 0"/>
<feBlend mode="normal" in2="BackgroundImageFix" result="effect1_dropShadow_6_26"/>
<feBlend mode="normal" in="SourceGraphic" in2="effect1_dropShadow_6_26" result="shape"/>
</filter>
<linearGradient id="paint0_linear_6_26" x1="278.466" y1="465.443" x2="278.466" y2="10.0051" gradientUnits="userSpaceOnUse">
<stop stop-color="#4B71FF" stop-opacity="0"/>
<stop offset="1" stop-color="#6B89F8"/>
</linearGradient>
</defs>
</svg>
